<svg width="187" height="158" viewBox="0 0 187 158" fill="none" xmlns="http://www.w3.org/2000/svg">
<path d="M127.901 104.265L110.055 104.265V95.8568H127.901V87.4484H106.852V79.04H138.197L138.197 119.938L107.195 119.938V111.53L127.901 111.53L127.901 104.265Z" fill="white"/>
<path d="M85.75 104.46C78.325 102.425 70.68 100.005 70.68 91.59C70.68 84.055 76.4 79.16 86.245 79.16C96.475 79.16 104.175 84.22 104.175 92.965H94.275C94.275 88.785 90.645 87.245 86.245 87.245C82.56 87.245 80.58 88.675 80.58 90.655C80.58 93.79 84.815 94.505 90.37 96.155C97.135 98.135 103.075 101.05 103.075 108.31C103.075 116.89 96.365 120.245 87.895 120.245C78.71 120.245 71.505 115.405 71.23 107.43L81.13 107.43C81.57 110.4 84.1 112.16 87.895 112.16C90.865 112.16 93.175 111.225 93.175 109.025C93.175 106.605 90.7 105.835 85.75 104.46Z" fill="white"/>
<path d="M100.62 82.96H104.62V92.46C104.62 92.7361 104.396 92.96 104.12 92.96H100.62V82.96Z" fill="white"/>
<path d="M80.8242 64.6797H94.5439V49H104.624V89.04H94.5439V72.9121H80.8242V89.04H70.7441V49H80.8242V64.6797ZM149.747 49V57.2324H138.155V89.04H128.075V57.2324H116.895V87.4404H106.815V49H149.747Z" fill="white"/>
<rect x="70.74" y="89.04" width="1" height="3" fill="white"/>
<path d="M96.0085 5C75.1539 5.98205 82.4632 21.021 37.0085 12C30.7086 27.3536 26.7925 36.6096 27.0085 41C33.4746 72.5662 37.6109 76.546 32.5085 99C37.7226 126.947 37.3222 138.304 30.0085 150L75.0085 152C111.376 152.291 96.7529 140.174 125.008 150.5C129.394 152.028 143.334 138.205 174.508 149.5C173.182 140.225 172.634 134.85 172.008 125C178.55 73.2458 185.671 107.874 176.508 55.5C178.731 39.7262 180.469 31.5354 181.508 17.5C120.859 22.9336 119.523 5.86008 96.0085 5Z" stroke="white" stroke-width="10"/>
</svg>
