<svg width="187" height="158" viewBox="0 0 187 158" fill="none" xmlns="http://www.w3.org/2000/svg">
<mask id="path-1-outside-1_131_45" maskUnits="userSpaceOnUse" x="105" y="78.04" width="35" height="43" fill="#3f5948">
<rect fill="white" x="105" y="78.04" width="35" height="43"/>
<path d="M127.901 104.265L110.055 104.265V95.8568H127.901V87.4484H106.852V79.04H138.197L138.197 119.938L107.195 119.938V111.53L127.901 111.53L127.901 104.265Z"/>
</mask>
<path d="M127.901 104.265L110.055 104.265V95.8568H127.901V87.4484H106.852V79.04H138.197L138.197 119.938L107.195 119.938V111.53L127.901 111.53L127.901 104.265Z" fill="#3f5948"/>
<path d="M127.901 104.265H128.901V103.265H127.901V104.265ZM110.055 104.265H109.055V105.265H110.055V104.265ZM110.055 95.8568V94.8568H109.055V95.8568H110.055ZM127.901 95.8568V96.8568H128.901V95.8568H127.901ZM127.901 87.4484H128.901V86.4484H127.901V87.4484ZM106.852 87.4484H105.852V88.4484H106.852V87.4484ZM106.852 79.04V78.04H105.852V79.04H106.852ZM138.197 79.04H139.197V78.04H138.197V79.04ZM138.197 119.938V120.938H139.197V119.938H138.197ZM107.195 119.938H106.195V120.938H107.195V119.938ZM107.195 111.53V110.53H106.195V111.53H107.195ZM127.901 111.53V112.53H128.901V111.53H127.901ZM127.901 104.265V103.265L110.055 103.265V104.265V105.265L127.901 105.265V104.265ZM110.055 104.265H111.055V95.8568H110.055H109.055V104.265H110.055ZM110.055 95.8568V96.8568H127.901V95.8568V94.8568H110.055V95.8568ZM127.901 95.8568H128.901V87.4484H127.901H126.901V95.8568H127.901ZM127.901 87.4484V86.4484H106.852V87.4484V88.4484H127.901V87.4484ZM106.852 87.4484H107.852V79.04H106.852H105.852V87.4484H106.852ZM106.852 79.04V80.04H138.197V79.04V78.04H106.852V79.04ZM138.197 79.04H137.197L137.197 119.938H138.197H139.197L139.197 79.04H138.197ZM138.197 119.938V118.938L107.195 118.938V119.938V120.938L138.197 120.938V119.938ZM107.195 119.938H108.195V111.53H107.195H106.195V119.938H107.195ZM107.195 111.53V112.53L127.901 112.53V111.53V110.53L107.195 110.53V111.53ZM127.901 111.53H128.901V104.265H127.901H126.901L126.901 111.53H127.901Z" fill="#3f5948" mask="url(#path-1-outside-1_131_45)"/>
<mask id="path-3-outside-2_131_45" maskUnits="userSpaceOnUse" x="69" y="78.04" width="37" height="44" fill="#3f5948">
<rect fill="white" x="69" y="78.04" width="37" height="44"/>
<path d="M85.75 104.46C78.325 102.425 70.68 100.005 70.68 91.59C70.68 84.055 76.4 79.16 86.245 79.16C96.475 79.16 104.175 84.22 104.175 92.965H94.275C94.275 88.785 90.645 87.245 86.245 87.245C82.56 87.245 80.58 88.675 80.58 90.655C80.58 93.79 84.815 94.505 90.37 96.155C97.135 98.135 103.075 101.05 103.075 108.31C103.075 116.89 96.365 120.245 87.895 120.245C78.71 120.245 71.505 115.405 71.23 107.43L81.13 107.43C81.57 110.4 84.1 112.16 87.895 112.16C90.865 112.16 93.175 111.225 93.175 109.025C93.175 106.605 90.7 105.835 85.75 104.46Z"/>
</mask>
<path d="M85.75 104.46C78.325 102.425 70.68 100.005 70.68 91.59C70.68 84.055 76.4 79.16 86.245 79.16C96.475 79.16 104.175 84.22 104.175 92.965H94.275C94.275 88.785 90.645 87.245 86.245 87.245C82.56 87.245 80.58 88.675 80.58 90.655C80.58 93.79 84.815 94.505 90.37 96.155C97.135 98.135 103.075 101.05 103.075 108.31C103.075 116.89 96.365 120.245 87.895 120.245C78.71 120.245 71.505 115.405 71.23 107.43L81.13 107.43C81.57 110.4 84.1 112.16 87.895 112.16C90.865 112.16 93.175 111.225 93.175 109.025C93.175 106.605 90.7 105.835 85.75 104.46Z" fill="#3f5948"/>
<path d="M85.75 104.46L86.0176 103.497L86.0143 103.496L85.75 104.46ZM104.175 92.965V93.965H105.175V92.965H104.175ZM94.275 92.965H93.275V93.965H94.275V92.965ZM90.37 96.155L90.0853 97.1137L90.0891 97.1148L90.37 96.155ZM71.23 107.43V106.43H70.1949L70.2306 107.465L71.23 107.43ZM81.13 107.43L82.1192 107.283L81.9928 106.43H81.13V107.43ZM85.75 104.46L86.0143 103.496C82.2787 102.472 78.6712 101.393 75.989 99.588C73.3811 97.8325 71.68 95.4143 71.68 91.59H70.68H69.68C69.68 96.1808 71.8014 99.1801 74.8722 101.247C77.8688 103.264 81.7963 104.413 85.4857 105.424L85.75 104.46ZM70.68 91.59H71.68C71.68 88.0974 72.994 85.2849 75.4019 83.325C77.8332 81.346 81.4769 80.16 86.245 80.16V79.16V78.16C81.1681 78.16 77.0293 79.4216 74.1394 81.7739C71.226 84.1452 69.68 87.5477 69.68 91.59H70.68ZM86.245 79.16V80.16C91.2088 80.16 95.4656 81.3893 98.4535 83.5885C101.412 85.7665 103.175 88.9243 103.175 92.965H104.175H105.175C105.175 88.2608 103.088 84.5161 99.639 81.9778C96.2194 79.4608 91.5112 78.16 86.245 78.16V79.16ZM104.175 92.965V91.965H94.275V92.965V93.965H104.175V92.965ZM94.275 92.965H95.275C95.275 90.5258 94.186 88.7767 92.4386 87.6886C90.7563 86.6412 88.5346 86.245 86.245 86.245V87.245V88.245C88.3554 88.245 90.1487 88.6189 91.3814 89.3864C92.549 90.1134 93.275 91.2243 93.275 92.965H94.275ZM86.245 87.245V86.245C84.2916 86.245 82.6668 86.6212 81.4957 87.3626C80.2895 88.1263 79.58 89.2786 79.58 90.655H80.58H81.58C81.58 90.0515 81.8605 89.4988 82.5655 89.0525C83.3057 88.5838 84.5134 88.245 86.245 88.245V87.245ZM80.58 90.655H79.58C79.58 91.6951 79.9425 92.565 80.5877 93.2766C81.2063 93.959 82.0537 94.4627 82.9867 94.8762C84.8182 95.6878 87.3938 96.3142 90.0853 97.1136L90.37 96.155L90.6547 95.1964C87.7912 94.3459 85.4718 93.7898 83.797 93.0477C82.9769 92.6843 82.4184 92.3183 82.0694 91.9333C81.7468 91.5775 81.58 91.1825 81.58 90.655H80.58ZM90.37 96.155L90.0891 97.1148C93.4466 98.0975 96.4617 99.2771 98.6308 101.03C100.748 102.741 102.075 105.008 102.075 108.31H103.075H104.075C104.075 104.352 102.432 101.531 99.888 99.4748C97.3958 97.4604 94.0584 96.1926 90.6509 95.1953L90.37 96.155ZM103.075 108.31H102.075C102.075 112.298 100.537 114.965 98.0886 116.675C95.5854 118.424 92.0223 119.245 87.895 119.245V120.245V121.245C92.2377 121.245 96.2646 120.389 99.2339 118.315C102.258 116.203 104.075 112.902 104.075 108.31H103.075ZM87.895 120.245V119.245C83.4679 119.245 79.5921 118.078 76.8159 116.024C74.06 113.986 72.3557 111.057 72.2294 107.396L71.23 107.43L70.2306 107.465C70.3793 111.778 72.415 115.257 75.6266 117.632C78.8179 119.993 83.1371 121.245 87.895 121.245V120.245ZM71.23 107.43V108.43L81.13 108.43V107.43V106.43L71.23 106.43V107.43ZM81.13 107.43L80.1408 107.577C80.4005 109.33 81.2911 110.758 82.6819 111.729C84.0539 112.687 85.8512 113.16 87.895 113.16V112.16V111.16C86.1438 111.16 84.7786 110.753 83.8269 110.089C82.8939 109.437 82.2995 108.5 82.1192 107.283L81.13 107.43ZM87.895 112.16V113.16C89.4593 113.16 90.967 112.918 92.1213 112.299C93.3299 111.651 94.175 110.562 94.175 109.025H93.175H92.175C92.175 109.688 91.8651 110.167 91.1762 110.536C90.433 110.935 89.3006 111.16 87.895 111.16V112.16ZM93.175 109.025H94.175C94.175 108.234 93.9677 107.524 93.5252 106.904C93.0958 106.301 92.4895 105.846 91.7931 105.47C90.4347 104.738 88.4526 104.173 86.0176 103.497L85.75 104.46L85.4824 105.424C87.9974 106.122 89.7278 106.629 90.8444 107.231C91.3855 107.523 91.7074 107.799 91.8967 108.065C92.0729 108.312 92.175 108.606 92.175 109.025H93.175Z" fill="#3f5948" mask="url(#path-3-outside-2_131_45)"/>
<mask id="path-5-inside-3_131_45" fill="white">
<path d="M100.62 82.96H104.62V92.46C104.62 92.7361 104.396 92.96 104.12 92.96H100.62V82.96Z"/>
</mask>
<path d="M100.62 82.96H104.62V92.46C104.62 92.7361 104.396 92.96 104.12 92.96H100.62V82.96Z" fill="#3f5948" stroke="#3f5948" stroke-width="2" mask="url(#path-5-inside-3_131_45)"/>
<path d="M80.8242 64.6797H94.5439V49H104.624V89.04H94.5439V72.9121H80.8242V89.04H70.7441V49H80.8242V64.6797ZM149.747 49V57.2324H138.155V89.04H128.075V57.2324H116.895V87.4404H106.815V49H149.747Z" fill="#3f5948"/>
<rect x="70.99" y="89.29" width="0.5" height="2.5" fill="#3f5948" stroke="#3f5948" stroke-width="0.5"/>
<path d="M96.0085 5C75.1539 5.98205 82.4632 21.021 37.0085 12C30.7086 27.3536 26.7925 36.6096 27.0085 41C33.4746 72.5662 37.6109 76.546 32.5085 99C37.7226 126.947 37.3222 138.304 30.0085 150L75.0085 152C111.376 152.291 96.7529 140.174 125.008 150.5C129.394 152.028 143.334 138.205 174.508 149.5C173.182 140.225 172.634 134.85 172.008 125C178.55 73.2458 185.671 107.874 176.508 55.5C178.731 39.7262 180.469 31.5354 181.508 17.5C120.859 22.9336 119.523 5.86008 96.0085 5Z" stroke="#3f5948" stroke-width="15"/>
</svg>
