<svg width="150" height="87" viewBox="0 0 150 87" fill="none" xmlns="http://www.w3.org/2000/svg">
<path d="M127.901 55.2652L110.055 55.2652V46.8568H127.901V38.4484H106.852V30.04L138.197 30.04L138.197 70.938L107.195 70.938V62.5296L127.901 62.5296L127.901 55.2652Z" fill="white"/>
<path d="M85.75 55.46C78.325 53.425 70.68 51.005 70.68 42.59C70.68 35.055 76.4 30.16 86.245 30.16C96.475 30.16 104.175 35.22 104.175 43.965H94.275C94.275 39.785 90.645 38.245 86.245 38.245C82.56 38.245 80.58 39.675 80.58 41.655C80.58 44.79 84.815 45.505 90.37 47.155C97.135 49.135 103.075 52.05 103.075 59.31C103.075 67.89 96.365 71.245 87.895 71.245C78.71 71.245 71.505 66.405 71.23 58.43L81.13 58.43C81.57 61.4 84.1 63.16 87.895 63.16C90.865 63.16 93.175 62.225 93.175 60.025C93.175 57.605 90.7 56.835 85.75 55.46Z" fill="white"/>
<path d="M100.62 33.96H104.62V43.46C104.62 43.7361 104.396 43.96 104.12 43.96H100.62V33.96Z" fill="white"/>
<path d="M80.8242 15.6797H94.5439V0H104.624V40.04H94.5439V23.9121H80.8242V40.04H70.7441V0H80.8242V15.6797ZM149.747 0V8.23242H138.155V40.04H128.075V8.23242H116.895V38.4404H106.815V0H149.747Z" fill="white"/>
<rect x="70.74" y="40.04" width="1" height="3" fill="white"/>
</svg>
